# xmcd CD database file generated by Grip 3.0.0
# 
# Track frame offsets:
#       150
#       13030
#       26537
#       40685
#       60072
#       77955
#       89762
#       109687
#       120892
#       134787
#       146185
#       157500
#       185032
#       203412
#       217170
# 
# Disc length: 3067 seconds
# 
# Revision: 3
# Processed by: cddbd v1.5.1PL0 Copyright (c) Steve Scherf et al.
# Submitted via: Grip 3.0.0
# 
DISCID=c80bf90f
DTITLE=Various Artist - Blues For You - CD 2
DYEAR=1997
DGENRE=Blues
TTITLE0=Muddy Waters - Hoochie Coochie Man
TTITLE1=John Lee Hooker - One Bourbon, One Scotch, One Beer
TTITLE2=Sony Boy Williamson - Help Me
TTITLE3=Etta James - Baby What You Want Me To Do? (Live)
TTITLE4=Brownie McGhee and Sonny Terry - Livin' With The Blues
TTITLE5=Little Walter - My Babe
TTITLE6=Little Milton - Stormy Monday
TTITLE7=Lloyd Glenn - The Shakedown
TTITLE8=Koko Tayler - What Kind Of Man Is That
TTITLE9=Sonny Boy Williamson - Your Funeral, My Trial
TTITLE10=John Lee Hooker - Boom Boom
TTITLE11=Brownie McGhee and Sonny Terry - Brownie's Guitar Blues
TTITLE12=Howlin' Wolf - Goin' Down Slow
TTITLE13=Willie Dixon - Walking The Blues
TTITLE14=Muddy Waters - Got My Mojo Working
EXTD=
EXTT0=
EXTT1=
EXTT2=
EXTT3=
EXTT4=
EXTT5=
EXTT6=
EXTT7=
EXTT8=
EXTT9=
EXTT10=
EXTT11=
EXTT12=
EXTT13=
EXTT14=
PLAYORDER=
